<svg width="20" height="22" viewBox="0 0 20 22" fill="none" xmlns="http://www.w3.org/2000/svg">
<path fill-rule="evenodd" clip-rule="evenodd" d="M8.25 20.625C8.25 20.9897 8.10513 21.3394 7.84727 21.5973C7.58941 21.8551 7.23967 22 6.875 22C6.51033 22 6.16059 21.8551 5.90273 21.5973C5.64487 21.3394 5.5 20.9897 5.5 20.625V5.5C5.5 5.13533 5.64487 4.78559 5.90273 4.52773C6.16059 4.26987 6.51033 4.125 6.875 4.125C7.23967 4.125 7.58941 4.26987 7.84727 4.52773C8.10513 4.78559 8.25 5.13533 8.25 5.5V20.625ZM2.75 20.625C2.75 20.9897 2.60513 21.3394 2.34727 21.5973C2.08941 21.8551 1.73967 22 1.375 22C1.01033 22 0.660591 21.8551 0.402728 21.5973C0.144866 21.3394 0 20.9897 0 20.625V11C0 10.6353 0.144866 10.2856 0.402728 10.0277C0.660591 9.76987 1.01033 9.625 1.375 9.625C1.73967 9.625 2.08941 9.76987 2.34727 10.0277C2.60513 10.2856 2.75 10.6353 2.75 11V20.625ZM11 20.625V8.25C11 7.88533 11.1449 7.53559 11.4027 7.27773C11.6606 7.01987 12.0103 6.875 12.375 6.875C12.7397 6.875 13.0894 7.01987 13.3473 7.27773C13.6051 7.53559 13.75 7.88533 13.75 8.25V20.625C13.75 20.9897 13.6051 21.3394 13.3473 21.5973C13.0894 21.8551 12.7397 22 12.375 22C12.0103 22 11.6606 21.8551 11.4027 21.5973C11.1449 21.3394 11 20.9897 11 20.625ZM16.5 1.375C16.5 1.01033 16.6449 0.660591 16.9027 0.402728C17.1606 0.144866 17.5103 0 17.875 0C18.2397 0 18.5894 0.144866 18.8473 0.402728C19.1051 0.660591 19.25 1.01033 19.25 1.375V20.625C19.25 20.9897 19.1051 21.3394 18.8473 21.5973C18.5894 21.8551 18.2397 22 17.875 22C17.5103 22 17.1606 21.8551 16.9027 21.5973C16.6449 21.3394 16.5 20.9897 16.5 20.625V1.375Z" fill="url(#paint0_linear_29288_2040)"/>
<defs>
<linearGradient id="paint0_linear_29288_2040" x1="0.905882" y1="0.800001" x2="21.4948" y2="18.6217" gradientUnits="userSpaceOnUse">
<stop stop-color="#29235C"/>
<stop offset="1" stop-color="#1D71B8"/>
</linearGradient>
</defs>
</svg>
