<svg width="135" height="63" viewBox="0 0 135 63" fill="none" xmlns="http://www.w3.org/2000/svg">
<path d="M74.7157 42.2119L88.8703 12.2826L88.9624 60.1157L74.7157 42.2119Z" fill="#29235C"/>
<path d="M102.998 30.0078L88.8431 59.9371L88.751 12.1041L102.998 30.0078Z" fill="#1D71B8"/>
<path d="M102.654 29.9551L135 22.8911L88.4118 12.0481L102.654 29.9551Z" fill="#00D4FF"/>
<path d="M10.2994 15.5107H7.05084V27.139C7.05084 27.2497 7.01393 27.3605 6.9401 27.4343C6.86627 27.5082 6.75552 27.5451 6.64477 27.5451H4.06069C3.94995 27.5451 3.8392 27.5082 3.76537 27.4343C3.69154 27.3605 3.65462 27.2497 3.65462 27.139V15.5107H0.406069C0.369153 15.5107 0.295322 15.5106 0.258407 15.4737C0.221491 15.4737 0.147663 15.4368 0.110747 15.3999C0.0738319 15.363 0.0369148 15.3261 0.0369148 15.2892C-5.63834e-07 15.2522 0 15.1784 0 15.1415V13.0742C0 13.0373 -5.63834e-07 12.9635 0.0369148 12.9266C0.0738302 12.8897 0.0738319 12.8527 0.110747 12.8158C0.147663 12.7789 0.184576 12.742 0.258407 12.742C0.295322 12.742 0.369153 12.7051 0.406069 12.7051H10.2994C10.4101 12.7051 10.5209 12.742 10.5947 12.8158C10.6685 12.8897 10.7055 13.0004 10.7424 13.0742V15.1415C10.7424 15.2522 10.7055 15.363 10.5947 15.3999C10.5209 15.4737 10.4101 15.5107 10.2994 15.5107Z" fill="black"/>
<path d="M21.3004 27.471C20.0084 27.6556 18.7163 27.7663 17.4243 27.7294C14.8402 27.7294 12.5884 27.0649 12.5884 23.4472V16.8024C12.5884 13.1847 14.8771 12.5203 17.4612 12.5203C18.7532 12.4833 20.0453 12.5941 21.3004 12.7787C21.5957 12.8156 21.7065 12.9263 21.7065 13.1847V15.0305C21.7065 15.1413 21.6696 15.252 21.5957 15.3258C21.5219 15.3997 21.4112 15.4366 21.3004 15.4366H17.2397C16.3168 15.4366 15.9477 15.7688 15.9477 16.8024V18.6113H21.1158C21.2266 18.6113 21.3373 18.6482 21.4112 18.722C21.485 18.7959 21.5219 18.9066 21.5219 19.0174V20.9001C21.5219 20.937 21.5219 21.0108 21.485 21.0477C21.4481 21.0846 21.4481 21.1585 21.4112 21.1954C21.3742 21.2323 21.3373 21.2692 21.2635 21.2692C21.2266 21.3061 21.1527 21.3061 21.1158 21.3061H15.9477V23.4103C15.9477 24.4439 16.2799 24.7762 17.2397 24.7762H21.3004C21.4112 24.7762 21.5219 24.8131 21.5957 24.8869C21.6696 24.9607 21.7065 25.0715 21.7065 25.1822V27.028C21.6696 27.2864 21.5588 27.4341 21.3004 27.471Z" fill="black"/>
<path d="M28.2397 27.7294C26.9846 27.7294 25.6926 27.5817 24.4744 27.2864C24.2898 27.2125 24.0683 27.1018 24.0683 26.8803V24.9238C24.0683 24.8869 24.0683 24.813 24.0683 24.7761C24.0683 24.7392 24.1052 24.7023 24.1421 24.6654C24.179 24.6285 24.2159 24.5915 24.2529 24.5915C24.2898 24.5915 24.3636 24.5546 24.4005 24.5546H24.4744C25.2865 24.6285 27.5014 24.7761 28.2766 24.7761C29.6425 24.7761 30.0486 24.3331 30.0486 23.3733C30.0486 22.7827 29.7533 22.4874 28.7196 21.8598L25.951 20.2355C24.1052 19.1281 23.5884 17.8729 23.5884 16.4332C23.5884 14.2552 24.8066 12.5571 28.6827 12.5571C30.0855 12.5571 31.5252 12.7048 32.8911 13.0001C32.9649 13.0001 33.0387 13.0739 33.1126 13.1109C33.1864 13.1847 33.1864 13.2585 33.1864 13.3323V15.3258C33.1864 15.3627 33.1864 15.4365 33.1864 15.4734C33.1864 15.5104 33.1495 15.5473 33.1126 15.5842C33.0756 15.6211 33.0387 15.658 33.0018 15.658C32.9649 15.658 32.928 15.6949 32.8541 15.658H32.8172C32.2635 15.6211 29.9378 15.4365 28.572 15.4365C27.4276 15.4365 27.0215 15.7688 27.0215 16.5071C27.0215 17.0608 27.2799 17.3192 28.3505 17.9099L30.8976 19.2757C32.9649 20.3832 33.5925 21.7121 33.5925 23.3364C33.7032 25.4775 32.3004 27.7294 28.2397 27.7294Z" fill="black"/>
<path d="M41.4934 27.7292C38.2079 27.7292 35.5869 25.9572 35.5869 21.3059V18.9433C35.5869 14.3289 38.2079 12.52 41.4934 12.52C44.7788 12.52 47.3998 14.292 47.3998 18.9433V21.3059C47.3998 25.9572 44.7788 27.7292 41.4934 27.7292ZM43.9667 18.9433C43.9667 16.5438 43.1546 15.5102 41.4934 15.5102C39.8322 15.5102 39.02 16.5438 39.02 18.9433V21.3059C39.02 23.7054 39.7953 24.739 41.4934 24.739C43.1546 24.739 43.9667 23.7054 43.9667 21.3059V18.9433Z" fill="black"/>
<path d="M61.021 27.5446H57.957C57.7355 27.5446 57.6617 27.36 57.551 27.1385L54.893 22.0811L54.6716 22.118C54.2655 22.118 53.6379 22.0811 53.2688 22.0811V27.1385C53.2688 27.2493 53.2319 27.36 53.158 27.4338C53.0842 27.5077 52.9734 27.5446 52.8627 27.5446H50.2786C50.1679 27.5446 50.0571 27.5077 49.9833 27.4338C49.9095 27.36 49.8726 27.2493 49.8726 27.1385V13.7382C49.8726 13.0738 50.1679 12.8892 50.7585 12.7784C52.0875 12.5938 53.4533 12.52 54.8192 12.52C58.2154 12.52 60.8364 13.6644 60.8364 17.1714V17.4298C60.8733 18.2788 60.6519 19.1279 60.2089 19.8293C59.729 20.5307 59.0645 21.0844 58.2523 21.4166L61.2794 27.0278C61.3163 27.1016 61.3532 27.1754 61.3532 27.2493C61.3163 27.4338 61.2425 27.5446 61.021 27.5446ZM57.4402 17.2083C57.4402 15.9901 56.5173 15.4363 54.8192 15.4363C54.5239 15.4363 53.4903 15.4733 53.2688 15.5102V19.3494C53.4903 19.3863 54.487 19.3863 54.6716 19.3863C56.7757 19.3863 57.4402 18.8326 57.4402 17.5036V17.2083Z" fill="black"/>
<path d="M74.1259 27.5448H71.5049C71.468 27.5448 71.3941 27.5448 71.3572 27.5079C71.3203 27.4709 71.2834 27.4709 71.2465 27.434C71.2096 27.3971 71.1726 27.3602 71.1726 27.2864C71.1726 27.2495 71.1357 27.1756 71.1726 27.1387V22.3028H66.8166V27.1387C66.8166 27.1756 66.8166 27.2495 66.7797 27.2864C66.7797 27.3233 66.7428 27.3971 66.7059 27.434C66.669 27.4709 66.6321 27.5079 66.5951 27.5079C66.5582 27.5448 66.4844 27.5448 66.4475 27.5448H63.8265C63.7157 27.5448 63.605 27.5079 63.5312 27.434C63.4573 27.3602 63.4204 27.2495 63.4204 27.1387V16.9501C63.4204 13.3693 65.5984 12.5571 68.2563 12.5571H69.7329C72.3909 12.5571 74.5689 13.3693 74.5689 16.9501V27.1387C74.5689 27.2495 74.532 27.3602 74.4581 27.434C74.3474 27.5079 74.2366 27.5448 74.1259 27.5448ZM71.1357 16.9501C71.1357 15.8426 70.8035 15.5104 69.696 15.5104H68.2563C67.1489 15.5104 66.8166 15.8426 66.8166 16.9501V19.4603H71.1357V16.9501Z" fill="black"/>
<path d="M20.3967 42.7931C20.3679 40.6108 19.5774 38.7686 18.0106 37.2382C16.4438 35.7078 14.5465 34.9567 12.3616 34.9567C10.2199 34.9567 8.38003 35.6794 6.82764 37.139C5.28962 38.5844 4.44156 40.3557 4.32657 42.453V59.656H0V42.7931C0.028748 39.4346 1.25054 36.5864 3.66536 34.234C6.06582 31.8817 8.96936 30.7056 12.376 30.7056C15.7683 30.7056 18.6718 31.8817 21.0866 34.234C23.5014 36.5864 24.7232 39.4346 24.752 42.7931V59.656H20.3967V42.7931Z" fill="#1D71B8"/>
<path d="M49.5041 30.9751V35.2121H33.5058V43.2043H49.5041V47.413H33.5058V59.6422H29.208V30.9751H49.5041Z" fill="#1D71B8"/>
<path d="M52.5518 35.2121V30.9751H74.3714V35.2121H65.6177V59.6422H61.3199V35.2121H52.5518Z" fill="#1D71B8"/>
</svg>
